<?xml version="1.0" encoding="UTF-8"?>
<svg xmlns="http://www.w3.org/2000/svg" version="1.1" xmlns:xlink="http://www.w3.org/1999/xlink" viewBox="0 0 110.8 110.8">
  <!-- Generator: Adobe Illustrator 29.3.0, SVG Export Plug-In . SVG Version: 2.1.0 Build 146)  -->
  <defs>
    <style>
      .st0, .st1, .st2, .st3 {
        fill: none;
      }

      .st4 {
        opacity: .6;
      }

      .st4, .st5 {
        fill: #f9ddd2;
        mix-blend-mode: multiply;
      }

      .st6 {
        isolation: isolate;
      }

      .st1 {
        stroke: #df6a81;
        stroke-width: 4px;
      }

      .st1, .st2, .st3 {
        stroke-miterlimit: 10;
      }

      .st7 {
        fill: #eba88b;
      }

      .st8 {
        fill: #ed7977;
      }

      .st9 {
        fill: #f7bea0;
      }

      .st2 {
        stroke-dasharray: 3 3;
      }

      .st2, .st3 {
        stroke: #082026;
      }

      .st10 {
        fill: #dfa085;
      }

      .st11 {
        clip-path: url(#clippath);
      }
    </style>
    <clipPath id="clippath">
      <path class="st0" d="M108.8,55.4c0,29.5-23.9,53.4-53.4,53.4S2,84.9,2,55.4,25.9,2,55.4,2s53.4,23.9,53.4,53.4Z"/>
    </clipPath>
  </defs>
  <g class="st6">
    <g id="Layer_1">
      <g>
        <g class="st11">
          <g>
            <path class="st9" d="M6.3,70.3l29.4-49.9c1-10.2-8.4-13.8-8.4-13.8-8.3,0-9.9,6-9.9,6L-6.6,67.1s9.1,6.3,13,3.2Z"/>
            <path class="st9" d="M22.2,29.2s7.1-.7,5.4,5.2c0,0-5.9,11.6,1.8,19.1l4.3,21.5s1,5.7-1.7,11.1c0,0-7.9,15-10.6,26.4h68.9c-2.6-11.4-10.6-26.4-10.6-26.4-2.8-5.4-1.7-11.1-1.7-11.1l4.6-16.3c8.1-9.7,1.6-24.4,1.6-24.4-1.7-5.9,5.6-5.3,5.6-5.3,2.7-2.3,1.2-5.3,1.2-5.3,0,0,4.6-12.1-1.4-15.9L62.4,1.1h-12.9l-27.2,6.9c-6,3.8-1.4,15.9-1.4,15.9,0,0-1.3,3.1,1.4,5.4Z"/>
            <path class="st5" d="M64.6,100.1c.3.2.4.3.6.6,1.5,2.2,3,.5,3.8.3.3,0,.5.1.7.3,2.2,1.7,2.8.9,4,0,1.8-1.3,2.3-2.6,3-2.1,2.8,1.9,7.3,2.6,9.5.7-1.9-4.4-2.4-5.7-3.6-8.2-2.7,0-5.6-5.6-8.2-5-1.7.4-4.5,1.3-6.2,1.9-1.1.4-2.6.9-3.2,2-.8,1,0,2,.9,2.8.4.1.6.7.3,1-1.5,1.3-6,3-1.6,5.7Z"/>
            <path class="st4" d="M69.5,57c-10.9-5.5-12-13.8-11.5-20-1.4.9-1.9,1.9-3.4-1.3,1,9.1-.2,10.1-2,12.1-1.9,2-5,5.5-7.5,6.5-3.1,1.3-6.4,2.4-9.9,2.1-2.1-.2-3.9-1.8-5.8-2.7l2,9.8c2.7.3,5.3.4,7.9-.6,3.1-1.2,6-2.8,8.5-5,2.5-2.3,5.4-7.1,9.3-6,1.7.5,3,2.3,4,3.6,3,3.7,8.4,9.7,13.4,10.5,1.5.2,4.3,2.1,5.6,1.9l2.8-10.1c-3.7,2.1-9.2,1.4-13.4-.8Z"/>
            <path class="st7" d="M27.6,34.4s-.3.7-.6,2c-.3,1.3-.7,3.1-.8,5.3,0,1.1,0,2.3.1,3.5.2,1.2.5,2.5,1,3.7.5,1.2,1.2,2.3,2.1,3.4l.7.8c.2.2.5.4.8.6.5.4,1.1.8,1.7,1.1,2.4,1.3,5.3,1.8,7.9,1.2,1.3-.3,2.5-.7,3.6-1.3,1.1-.6,2.1-1.2,3-1.8.9-.7,1.7-1.3,2.3-1.9.7-.6,1.2-1.2,1.7-1.6.9-.9,1.4-1.5,1.4-1.5,0,0-.1.2-.3.5-.2.3-.5.7-.9,1.3-.4.5-.9,1.2-1.5,1.9-.6.7-1.3,1.5-2.2,2.2-.8.8-1.8,1.5-3,2.2-1.1.7-2.5,1.3-3.9,1.7-1.4.4-3,.5-4.6.3-1.6-.2-3.1-.7-4.6-1.4-.7-.4-1.4-.8-2-1.3-.3-.3-.6-.5-.9-.8l-.8-.9c-1-1.2-1.9-2.6-2.4-4-1.1-2.8-1-5.7-.7-8,.4-2.3,1.1-4.1,1.6-5.3.6-1.2,1-1.8,1-1.8Z"/>
            <path class="st8" d="M84.8,35.7s.4.7.9,2.1c.5,1.4,1.1,3.4,1.5,5.8.2,1.2.3,2.6.4,4.1,0,1.5,0,3-.4,4.6-.3,1.6-.9,3.2-1.8,4.7-.5.7-1,1.5-1.6,2.1-.2.2-.3.3-.5.5-.2.2-.4.3-.6.4-.4.3-.8.5-1.2.7-1.7.7-3.6.9-5.3.6-1.7-.3-3.3-.9-4.8-1.7-1.4-.8-2.7-1.7-3.8-2.6-1.1-.9-2.1-1.9-2.9-2.8-.9-.9-1.6-1.8-2.2-2.6-.6-.8-1.1-1.5-1.6-2.1-.8-1.2-1.3-1.9-1.3-1.9,0,0,.6.6,1.6,1.6.5.5,1.1,1.1,1.8,1.8.7.7,1.5,1.5,2.4,2.3,1.8,1.6,4.1,3.4,6.7,4.6,1.3.6,2.8,1.1,4.2,1.3,1.5.2,3,0,4.3-.5.3-.1.6-.3.9-.5.1,0,.3-.2.4-.3,0,0,.2-.2.4-.4.5-.5,1-1.1,1.4-1.8.8-1.3,1.3-2.7,1.7-4.1.7-2.8.7-5.7.6-8.1-.2-2.4-.5-4.4-.7-5.9-.3-1.4-.5-2.2-.5-2.2Z"/>
            <g>
              <path class="st7" d="M39.6,46.1c0,1.6-1.3,2.9-2.8,2.9s-2.8-1.3-2.8-2.9,1.3-2.9,2.8-2.9,2.8,1.3,2.8,2.9Z"/>
              <circle class="st10" cx="36.8" cy="46.1" r="1.1"/>
            </g>
            <g>
              <path class="st7" d="M77.7,46.1c0,1.6-1.3,2.9-2.8,2.9s-2.8-1.3-2.8-2.9,1.3-2.9,2.8-2.9,2.8,1.3,2.8,2.9Z"/>
              <path class="st10" d="M76,46.1c0,.6-.5,1.1-1.1,1.1s-1.1-.5-1.1-1.1.5-1.1,1.1-1.1,1.1.5,1.1,1.1Z"/>
            </g>
            <path class="st7" d="M58.1,88.7c0,1.3-.7,2.4-1.6,2.4s-1.6-1.1-1.6-2.4.7-2.4,1.6-2.4,1.6,1.1,1.6,2.4Z"/>
            <path class="st7" d="M55.3,53.5c0,7.5.2,15.1.3,22.6s0,4,0,6,1,.6,1,0c0-7.5-.2-15.1-.3-22.6s0-4,0-6-1-.6-1,0h0Z"/>
            <path class="st7" d="M30.5,8.1s0,0,.2-.2c.1-.1.3-.3.6-.5.6-.4,1.6-.7,2.8-.7,1.2,0,2.6.2,4,.6.7.2,1.4.3,2.1.5.7.2,1.5.4,2.2.6,1.5.4,3,.9,4.3,1.4,1.3.6,2.6,1.2,3.5,1.9,1,.7,1.7,1.4,2,2.1.3.7.2,1.1.2,1.1,0,0,0,0,0-.3,0-.2-.2-.4-.4-.6-.4-.5-1.2-1-2.2-1.5-1-.5-2.2-.9-3.6-1.4-1.3-.4-2.8-.9-4.2-1.2-1.5-.4-3-.8-4.3-1.3-1.3-.4-2.6-.8-3.7-1-1.1-.2-2-.1-2.6.1-.3.1-.5.2-.7.3-.1.1-.2.2-.2.2Z"/>
            <path class="st7" d="M80.5,8.1s0,0-.2-.2c-.2,0-.4-.2-.7-.3-.6-.2-1.5-.3-2.6-.1-1.1.2-2.3.5-3.7,1-1.3.4-2.8.9-4.3,1.3-1.5.4-2.9.8-4.2,1.2-1.3.4-2.6.9-3.6,1.4-1,.5-1.8,1-2.2,1.5-.2.2-.3.5-.4.6,0,.2,0,.3,0,.3,0,0-.1-.4.2-1.1.3-.6,1-1.4,2-2.1,1-.7,2.2-1.3,3.5-1.9,1.3-.6,2.8-1,4.3-1.4.7-.2,1.5-.4,2.2-.6.7-.2,1.4-.4,2.1-.5,1.4-.3,2.8-.6,4-.6,1.2,0,2.2.3,2.8.7.3.2.5.4.6.5.1.1.2.2.2.2Z"/>
            <path class="st9" d="M104.4,67.9l-27.1-48c-1-10.2,9.8-12.8,9.8-12.8,5.1-.6,7.7,5.5,7.7,5.5l22.7,52.1s-9.2,6.3-13,3.1Z"/>
            <g>
              <path class="st9" d="M83.2,95l-7.6-6.8s-1-1.3-3.5,0l-6.2,2.5s-1.5,1.7.8,2.2l6.7-2.2-5.7,3.3-4.2,3.2s-.8.8,0,1.5c0,0,.6,1,1.7.2l3.5-2.5,6.1-3.3-8.1,6.1s-1,.5-.4,1.5c0,0,.5.8,1.7,0l8.2-5.7-5.7,5.1s-.6,1.4,1.5,1.3l4.8-3.5s1.8,3.8,5.8,2.4"/>
              <path class="st9" d="M113,56.7l4.4,8-34.9,35.4-.9-6.6,19.8-35.3s6.7-3.9,11.6-1.5Z"/>
            </g>
            <g>
              <path class="st7" d="M31.4,98.2s.3,0,.8,0c.3,0,.6,0,.9.1.4,0,.8.1,1.2.3.4.1.9.3,1.3.6.5.2.9.5,1.4.9.4.4.9.7,1.3,1.2.4.4.8.9,1.2,1.4.3.5.7,1,1,1.5.3.5.5,1,.8,1.5.5,1,.9,1.9,1.2,2.7.7,1.6,1,2.7,1,2.7,0,0-.8-.9-1.8-2.3-.5-.7-1-1.6-1.6-2.5-.6-.9-1.2-1.9-1.8-2.7-.3-.4-.6-.9-1-1.3-.3-.4-.7-.8-1.1-1.1-.4-.3-.7-.7-1.1-.9-.4-.3-.8-.5-1.1-.7-.4-.2-.7-.4-1-.5-.3-.2-.6-.3-.8-.4-.5-.2-.7-.3-.7-.3Z"/>
              <path class="st7" d="M80.5,98.2s-.3.1-.7.3c-.2,0-.5.2-.8.4-.3.2-.6.3-1,.5-.4.2-.7.4-1.1.7-.4.3-.7.6-1.1.9-.4.4-.7.7-1.1,1.1-.4.4-.7.8-1,1.3-.7.9-1.2,1.8-1.8,2.7-.6.9-1.1,1.8-1.6,2.5-1,1.4-1.8,2.3-1.8,2.3,0,0,.4-1.1,1-2.7.3-.8.7-1.7,1.2-2.7.3-.5.5-1,.8-1.5.3-.5.6-1,1-1.5.4-.5.7-.9,1.2-1.4.4-.5.9-.8,1.3-1.2.5-.3.9-.6,1.4-.9.5-.3.9-.4,1.3-.6.4-.2.8-.2,1.2-.3.4,0,.7,0,.9-.1.5,0,.8,0,.8,0Z"/>
            </g>
            <path class="st5" d="M28.5,108.8c1.9.3,3.8,4.3,5.9,2.5.2-.2.5-.3.8,0,.7.4,3.6,2,3.3-.4,0-.5.6-.8.9-.5,2.2-.8,2.7-1.7,1.7-2.9-.2-.2-.3-.5-.5-.7-.3-.4-.6-.8-.9-1.3-.2-.3,0-.7.2-.9,3.1-1.5,0-4.2-1.3-5.5-1.5-1.5-3.9-4.1-6.3-3.4-2.3.7-4,2.6-6.3,3.5-1.2,3-2.5,6.3-3.4,9.4,1.9.3,3.8-.1,6,.2Z"/>
            <g>
              <path class="st9" d="M21.9,107.5c3.7,2.3,6.2-1.1,6.2-1.1l3.9,4.5c2,.6,1.8-.9,1.8-.9l-4.5-6.2,6.8,7.3c1,1.1,1.6.4,1.6.4.8-.9,0-1.6,0-1.6l-6.6-7.7,5.2,4.5,2.9,3.2c.9,1,1.7.2,1.7.2.9-.5.3-1.5.3-1.5l-3.4-4-4.9-4.4,6.1,3.6c2.4,0,1.3-2,1.3-2l-5.5-3.8c-2.2-1.9-3.4-.8-3.4-.8l-8.8,5-.4,5"/>
              <path class="st9" d="M-1.6,59.6l-5,8,28.5,39.9,2.3-6.2-14.1-38.9s-6-7.2-11.7-2.7Z"/>
            </g>
          </g>
        </g>
        <path class="st1" d="M108.8,55.4c0,29.5-23.9,53.4-53.4,53.4S2,84.9,2,55.4,25.9,2,55.4,2s53.4,23.9,53.4,53.4Z"/>
        <g>
          <line class="st3" x1="19.8" y1="55.4" x2="21.3" y2="55.4"/>
          <line class="st2" x1="24.2" y1="55.4" x2="88" y2="55.4"/>
          <line class="st3" x1="89.5" y1="55.4" x2="91" y2="55.4"/>
        </g>
      </g>
    </g>
  </g>
</svg>