<?xml version="1.0" encoding="UTF-8"?>
<svg id="Layer_1" xmlns="http://www.w3.org/2000/svg" version="1.1" xmlns:xlink="http://www.w3.org/1999/xlink" viewBox="0 0 110.8 110.8">
  <!-- Generator: Adobe Illustrator 29.3.0, SVG Export Plug-In . SVG Version: 2.1.0 Build 146)  -->
  <defs>
    <style>
      .st0, .st1 {
        fill: none;
      }

      .st1 {
        stroke: #df6a81;
        stroke-miterlimit: 10;
        stroke-width: 4px;
      }

      .st2 {
        fill: #eba88b;
      }

      .st3 {
        fill: #ed7977;
      }

      .st4 {
        fill: #f7bea0;
      }

      .st5 {
        fill: #f4a295;
      }

      .st6 {
        fill: #dfa085;
      }

      .st7 {
        clip-path: url(#clippath);
      }
    </style>
    <clipPath id="clippath">
      <path class="st0" d="M108.8,55.4c0,29.5-23.9,53.4-53.4,53.4S2,84.9,2,55.4,25.9,2,55.4,2s53.4,23.9,53.4,53.4Z"/>
    </clipPath>
  </defs>
  <g class="st7">
    <g>
      <path class="st4" d="M114.9,79.8c2.3-3.5,4.3-7.1,6.1-10.8v-6.8L93.4-1h-32.6c-.3,1-.6,2-.8,3.1l46.7,88c3-3.2,5.8-6.7,8.3-10.3Z"/>
      <path class="st4" d="M88.4-1H-2v90.8c6,8.6,16.1,14.5,25.3,19.1,2.1,1.1,4.2,2.1,6.4,3.1h31.6c.1-1.7.3-2.7.3-2.7l7.9-39.7c14.2-13.9,3.4-35.3,3.4-35.3-3.1-10.8,10.2-9.7,10.2-9.7,4.9-4.2,2.2-9.7,2.2-9.7,0,0,3.1-8,3.1-15.9Z"/>
      <path class="st4" d="M114.9,79.8c1.5-2.3,2.9-4.7,4.2-7.1-8.4-1.4-14.7,5.6-14.7,5.6l-13,25.1c9.1-6.6,17.3-14.3,23.5-23.6Z"/>
      <path class="st2" d="M.7,72.1s.2-.2.6-.6c.4-.4,1-.9,1.6-1.5.3-.3.7-.7,1-1,.4-.3.7-.7,1.1-1.1.8-.7,1.6-1.6,2.5-2.4.8-.8,1.7-1.6,2.5-2.4.4-.4.8-.7,1.2-1.1.4-.4.7-.7,1.1-1,.7-.6,1.2-1.1,1.6-1.5.4-.3.7-.5.7-.5,0,0-.1.3-.4.8-.2.5-.6,1.2-1.1,1.9-.5.8-1.1,1.7-1.8,2.6-.4.4-.7.9-1.1,1.4-.4.4-.8.9-1.3,1.3-.5.4-.9.8-1.4,1.2-.4.4-.9.7-1.4,1.1-.5.3-.9.7-1.4.9-.5.3-.9.5-1.3.7-.8.5-1.5.7-2,.9-.5.2-.8.3-.8.3Z"/>
      <path class="st3" d="M73.1,36s.9,1.1,2,3.2c1.1,2.1,2.5,5.4,3.2,9.5.4,2.1.5,4.4.3,6.9-.2,2.5-.8,5.1-1.9,7.6-1,2.6-2.7,4.9-4.7,7-2,2.2-4.5,3.8-7.1,5.1-2.6,1.3-5.5,2.1-8.4,2.3-2.9.3-5.8,0-8.4-.8-2.6-.8-5-1.9-7-3.2-1-.7-2-1.3-2.9-2-.4-.4-.9-.7-1.3-1-.4-.4-.8-.7-1.2-1.1-1.5-1.4-2.8-2.8-3.9-4.1-.6-.6-1-1.2-1.5-1.8-.4-.6-.8-1.1-1.2-1.6-.7-1-1.2-1.8-1.5-2.3-.3-.5-.5-.8-.5-.8,0,0,1,1,2.6,2.7.9.8,1.9,1.8,3.1,2.9,1.2,1.1,2.6,2.3,4.2,3.4,1.6,1.2,3.4,2.3,5.4,3.4,2,1,4.2,1.9,6.5,2.3,2.3.5,4.7.7,7.2.4,2.4-.3,4.8-1,7.1-2.1,1.1-.6,2.2-1.2,3.2-1.9.5-.4,1-.7,1.5-1.1.2-.2.5-.4.6-.6l.7-.7c1.7-1.8,3.1-3.8,4.1-5.8,1-2.1,1.7-4.3,2.1-6.4.4-2.2.4-4.3.4-6.2,0-2-.3-3.8-.6-5.4-.3-1.6-.6-3-.9-4.1-.6-2.3-1.1-3.6-1.1-3.6Z"/>
      <g>
        <path class="st2" d="M60.7,55.9c0,3-2.3,5.4-5.2,5.4s-5.2-2.4-5.2-5.4,2.3-5.4,5.2-5.4,5.2,2.4,5.2,5.4Z"/>
        <path class="st6" d="M57.6,55.9c0,1.1-.9,2-2,2s-2-.9-2-2,.9-2,2-2,2,.9,2,2Z"/>
      </g>
      <path class="st2" d="M19.3,69.5c0,9.1.2,18.2.4,27.2s0,5.2.1,7.7,2,1.3,2,0c-.1-9.1-.4-18.1-.4-27.2s0-5.2,0-7.7-2-1.3-2,0h0Z"/>
    </g>
    <path class="st5" d="M50.4,46.4c.8,1,3.2.9,4.3,1,3.2.4,5,1.4,5.8,4.7,2.4,1.2,5-1.1,6.7-2.8,2.9-3,.4-6,.2-9.9-1.8-1.6-2.1.4-3.7.2-1.1-.1-.7-1.4-1.5-1.5-.4,0-1.6,1-2,1.1-1.3.4-3.4-.5-4.5,0-1.9.7-7.2,4.8-5.2,7.3Z"/>
  </g>
  <path class="st1" d="M108.8,55.4c0,29.5-23.9,53.4-53.4,53.4S2,84.9,2,55.4,25.9,2,55.4,2s53.4,23.9,53.4,53.4Z"/>
</svg>